# xmcd
#
# Track frame offsets: 
#        150
#        21112
#        40371
#        59706
#        85063
#        103258
#        121408
#        137755
#        152870
#        171106
#        196464
#
# Disc length: 3021 seconds
#
# Revision: 0
# Processed by: cddbd v1.5.2PL0 Copyright (c) Steve Scherf et al.
# Submitted via: ExactAudioCopyFreeDBPlugin 1.0
#
DISCID=9b0bcb0b
DTITLE=Linda Clifford - I'll Keep On Loving You
DYEAR=1982
DGENRE=Funk
TTITLE0=Let It Ride
TTITLE1=Never Say Never
TTITLE2=Ain't You Glad
TTITLE3=Build A Fire
TTITLE4=Only The Angels Know
TTITLE5=All The Man I Need
TTITLE6=I'll Keep On Loving You
TTITLE7=I Lied
TTITLE8=Don't Come Crying To Me
TTITLE9=I'll Keep On Loving You (12 Inch Version)
TTITLE10=Don't Come Crying To Me (12 Inch Version)
EXTD=
EXTT0=
EXTT1=
EXTT2=
EXTT3=
EXTT4=
EXTT5=
EXTT6=
EXTT7=
EXTT8=
EXTT9=
EXTT10=
PLAYORDER=
